<?xml version="1.0" encoding="UTF-8" standalone="no"?>
<!-- Created with Inkscape (http://www.inkscape.org/) -->

<svg
   width="210mm"
   height="297mm"
   viewBox="0 0 210 297"
   version="1.1"
   id="svg1"
   xml:space="preserve"
   inkscape:export-filename="коллекция.svg"
   inkscape:export-xdpi="96"
   inkscape:export-ydpi="96"
   xmlns:inkscape="http://www.inkscape.org/namespaces/inkscape"
   xmlns:sodipodi="http://sodipodi.sourceforge.net/DTD/sodipodi-0.dtd"
   xmlns="http://www.w3.org/2000/svg"
   xmlns:svg="http://www.w3.org/2000/svg"><sodipodi:namedview
     id="namedview1"
     pagecolor="#ffffff"
     bordercolor="#000000"
     borderopacity="0.25"
     inkscape:showpageshadow="2"
     inkscape:pageopacity="0.0"
     inkscape:pagecheckerboard="0"
     inkscape:deskcolor="#d1d1d1"
     inkscape:document-units="mm"><inkscape:page
       x="0"
       y="0"
       width="210"
       height="297"
       id="page2"
       margin="0"
       bleed="0" /></sodipodi:namedview><defs
     id="defs1"><linearGradient
       id="swatch22"
       inkscape:swatch="solid"><stop
         style="stop-color:#00000d;stop-opacity:0.33082706;"
         offset="0"
         id="stop22" /></linearGradient></defs><g
     inkscape:label="Слой 1"
     inkscape:groupmode="layer"
     id="layer1"><path
       style="fill:#ffffff;fill-opacity:1;stroke:none;stroke-width:0.0869363;stroke-linecap:round;stroke-miterlimit:3.2;stroke-opacity:1"
       d="m 103.42853,161.37003 c -0.412,-0.012 -0.78707,0.17202 -1.14536,0.35221 -1.03769,0.52095 -2.08408,1.03483 -3.059237,1.66802 -0.54014,0.34995 -1.04003,0.82275 -1.2322,1.45534 -0.1626,0.54116 -0.12483,1.116 -0.15711,1.67424 -0.0389,0.9901 -0.0143,1.98389 -0.10636,2.97116 -0.0487,0.48112 -0.29488,0.93685 -0.68455,1.22664 -0.61889,0.45073 -1.30798,0.79356 -1.96672,1.18099 -0.745,0.43847 -1.5549,0.84362 -2.09297,1.54351 -0.35074,0.43586 -0.38715,1.01786 -0.43309,1.5525 -0.047,1.25341 -0.0389,2.50956 0.0183,3.7625 0.0257,0.5813 0.20715,1.17436 0.62226,1.5976 0.58069,0.59138 1.33611,0.96147 2.04004,1.38165 0.87105,0.48482 1.74609,0.97837 2.68496,1.32044 0.37704,0.0811 0.72123,-0.15758 1.05983,-0.28469 1.248627,-0.53932 2.399607,-1.27889 3.649747,-1.81414 0.38655,-0.15485 0.82376,-0.1909 1.23127,-0.10966 0.75247,0.22799 1.44214,0.61935 2.13864,0.97663 0.75411,0.38901 1.49992,0.80959 2.30568,1.08374 0.4453,0.12867 0.92626,0.0427 1.334,-0.16456 1.06273,-0.48314 2.09494,-1.03431 3.09691,-1.6329 0.60089,-0.36955 1.19977,-0.85648 1.40836,-1.55955 0.22809,-0.75617 0.16403,-1.55718 0.19244,-2.33644 -0.004,-1.01759 0.0491,-2.04581 -0.12735,-3.05278 -0.12853,-0.65921 -0.66541,-1.13843 -1.19227,-1.50469 -1.01348,-0.70442 -2.12907,-1.24921 -3.13202,-1.9689 -0.40626,-0.27856 -0.69312,-0.72438 -0.74533,-1.21771 -0.10413,-0.9943 -0.0674,-1.99674 -0.1,-2.99474 -0.0306,-0.62078 8e-4,-1.2735 -0.25058,-1.85598 -0.28591,-0.65508 -0.8787,-1.09999 -1.48293,-1.44353 -1.04565,-0.61231 -2.11222,-1.19558 -3.22336,-1.68091 -0.20468,-0.095 -0.42602,-0.13447 -0.65095,-0.12599 z m 0.32481,0.99919 c 0.80349,0.31893 1.56026,0.74478 2.31347,1.16635 0.39471,0.23742 0.81009,0.46569 1.13218,0.79896 0.0949,0.19496 -0.006,0.42021 -0.18056,0.52978 -0.76898,0.60167 -1.6341,1.06499 -2.48037,1.54657 -0.34702,0.18234 -0.69715,0.38751 -1.0713,0.4968 -1.02707,-0.43604 -1.9836,-1.01636 -2.95203,-1.56606 -0.31148,-0.1889 -0.643577,-0.38061 -0.866327,-0.67446 -0.1055,-0.26261 0.13325,-0.49242 0.34152,-0.61199 0.939287,-0.60537 1.938057,-1.11447 2.948327,-1.58967 0.18744,-0.0718 0.38639,-0.1809 0.58625,-0.17108 0.0763,0.0249 0.15256,0.0499 0.22884,0.0748 z m -5.098907,3.09487 c 0.54593,0.23135 1.0527,0.54854 1.572737,0.83269 0.69143,0.40493 1.39945,0.78772 2.05298,1.25268 0.41015,0.31086 0.76915,0.76623 0.76368,1.30511 0.0259,0.90149 0.0207,1.80424 0.005,2.70588 -0.0297,0.30848 -0.0581,0.64904 -0.25182,0.90299 -0.1666,0.14061 -0.38656,-0.0169 -0.55619,-0.0749 -0.96706,-0.43463 -1.89146,-0.9624 -2.781147,-1.53774 -0.40307,-0.26371 -0.80429,-0.61786 -0.89313,-1.11612 -0.0751,-0.46409 -0.0455,-0.93923 -0.0641,-1.40808 0.003,-0.83078 -0.0421,-1.66595 0.0528,-2.49317 0.0289,-0.1136 0.0142,-0.28624 0.0993,-0.36931 z m 9.539747,0.027 c 0.11543,0.0743 0.0838,0.25516 0.11274,0.37376 0.0945,1.18758 0.0909,2.38195 0.0366,3.57138 -0.0148,0.39749 -0.16713,0.78572 -0.44913,1.06963 -0.39029,0.39808 -0.91103,0.6288 -1.38086,0.91637 -0.71698,0.39645 -1.43487,0.80445 -2.20462,1.09028 -0.10193,0.0368 -0.27125,0.0764 -0.2999,-0.0738 -0.23842,-0.68731 -0.21197,-1.42808 -0.24376,-2.14546 0.002,-0.66559 -0.038,-1.35447 0.17741,-1.99429 0.21677,-0.51152 0.72225,-0.80901 1.16468,-1.10462 0.95851,-0.57781 1.92194,-1.15252 2.92655,-1.64725 0.0519,-0.0207 0.10374,-0.0517 0.16025,-0.056 z m 0.57769,5.96377 c 0.34878,0.0774 0.66489,0.26413 0.9901,0.40826 0.84867,0.42775 1.69772,0.86555 2.4835,1.40231 0.20239,0.13029 0.39722,0.44501 0.18622,0.65297 -0.4484,0.45122 -1.03236,0.73069 -1.56457,1.06776 -0.649,0.37371 -1.28705,0.77905 -1.98469,1.05726 -0.18493,0.0708 -0.36054,-0.0889 -0.52908,-0.1448 -1.02001,-0.51722 -2.03816,-1.04647 -2.99635,-1.6728 -0.20264,-0.14276 -0.49529,-0.31145 -0.44252,-0.60496 0.0833,-0.18407 0.27438,-0.30032 0.42775,-0.42578 0.71359,-0.47442 1.48088,-0.86239 2.24128,-1.25534 0.37906,-0.17737 0.75257,-0.38704 1.16172,-0.48452 l 0.0132,-5.3e-4 z m -10.591767,0.0208 c 0.45327,0.0775 0.85244,0.33098 1.26514,0.5212 0.742777,0.3903 1.505317,0.75785 2.183667,1.25606 0.15939,0.11993 0.37091,0.28159 0.29892,0.51026 -0.0725,0.2669 -0.35893,0.38753 -0.55788,0.54907 -0.8413,0.55898 -1.724917,1.05218 -2.613157,1.53185 -0.19422,0.0825 -0.38808,0.22939 -0.60688,0.21508 -0.63118,-0.22723 -1.20476,-0.58686 -1.79458,-0.90183 -0.61143,-0.35352 -1.25325,-0.66647 -1.81159,-1.10297 -0.13119,-0.10318 -0.2724,-0.25431 -0.19664,-0.43555 0.0853,-0.28164 0.39641,-0.38519 0.60926,-0.55144 0.84909,-0.53754 1.74764,-0.99428 2.65611,-1.42214 0.1805,-0.0758 0.36894,-0.16406 0.56763,-0.16959 z m 4.747147,3.16648 c 0.10473,0.13454 0.0761,0.33683 0.10454,0.49976 0.0598,1.07064 0.0599,2.14487 0.0243,3.21639 -0.0107,0.36855 -0.0512,0.75923 -0.29583,1.05491 -0.37756,0.51947 -0.98361,0.78466 -1.50666,1.12718 -0.71377,0.42775 -1.441687,0.8427 -2.216367,1.15008 -0.15064,0.0799 -0.33087,-0.0149 -0.35578,-0.18164 -0.22398,-0.63953 -0.15318,-1.32583 -0.17776,-1.9905 0.008,-0.55594 -0.0321,-1.11638 0.0398,-1.66903 0.069,-0.51798 0.43271,-0.93785 0.85581,-1.21713 0.846957,-0.54364 1.722627,-1.04247 2.598917,-1.53726 0.30589,-0.15673 0.60916,-0.3291 0.92901,-0.45276 z m 10.56993,0.01 c 0.1633,0.10572 0.13561,0.34564 0.16124,0.51682 0.0373,1.22866 0.0218,2.47033 -0.21221,3.68102 -0.0665,0.48042 -0.45107,0.812 -0.80606,1.09952 -0.89956,0.70112 -1.89452,1.28504 -2.94973,1.71864 -0.1233,0.0564 -0.32794,0.10746 -0.38479,-0.0643 -0.27112,-0.69669 -0.21376,-1.46123 -0.23175,-2.19412 0.0144,-0.59846 -0.0328,-1.20943 0.10749,-1.79639 0.1682,-0.60089 0.74048,-0.93345 1.22957,-1.25075 0.96996,-0.58545 1.94331,-1.17033 2.96068,-1.67058 0.0403,-0.0166 0.0809,-0.0402 0.12556,-0.0399 z m -20.129767,0.007 c 0.40878,0.12611 0.7704,0.37251 1.14746,0.57055 0.849,0.49563 1.72577,0.95177 2.52277,1.53027 0.4263,0.29149 0.70087,0.77911 0.72403,1.29541 0.047,1.00739 0.0646,2.02236 -0.0559,3.02544 -0.0432,0.22403 -0.0657,0.55421 -0.33385,0.61923 -0.30728,-0.0512 -0.59937,-0.19056 -0.88521,-0.31452 -0.79133,-0.40321 -1.53651,-0.89523 -2.24506,-1.42917 -0.2261,-0.19946 -0.45492,-0.40763 -0.64869,-0.63442 -0.31549,-0.93933 -0.36713,-1.94036 -0.41637,-2.92249 -0.005,-0.53673 -0.0274,-1.08055 0.0595,-1.61172 0.0164,-0.0612 0.0571,-0.13539 0.13136,-0.12858 z m 10.591187,0.003 c 0.74827,0.2929 1.42227,0.7434 2.12309,1.13162 0.63356,0.37831 1.30012,0.72533 1.84374,1.23147 0.40095,0.40191 0.43564,1.00318 0.44652,1.53739 0.005,0.79642 -5.3e-4,1.59465 -0.0564,2.38925 -0.0465,0.25759 -0.0589,0.6093 -0.33212,0.73406 -0.2529,0.0211 -0.4756,-0.14939 -0.70392,-0.23555 -0.96298,-0.46873 -1.90718,-0.98725 -2.77956,-1.61057 -0.34976,-0.24778 -0.62121,-0.6257 -0.655,-1.06261 -0.1331,-1.10543 -0.0806,-2.22299 -0.0305,-3.33219 0.0297,-0.25811 0.006,-0.53824 0.11223,-0.77824 0.009,-0.006 0.0212,-0.006 0.0319,-0.005 z"
       id="path3117" /></g></svg>
